<svg version="1.1" id="Layer_1" xmlns="http://www.w3.org/2000/svg" xmlns:xlink="http://www.w3.org/1999/xlink" x="0px" y="0px"
	 width="100%" viewBox="0 0 500 500" enable-background="new 0 0 500 500" xml:space="preserve">
<path fill="#000000" opacity="1.000000" stroke="none" 
	d="
M459.000000,501.000000 
	C306.000031,501.000000 153.500076,501.000000 1.000082,501.000000 
	C1.000055,334.333405 1.000055,167.666824 1.000027,1.000171 
	C167.666550,1.000114 334.333099,1.000114 500.999756,1.000057 
	C500.999817,167.666519 500.999817,334.333038 500.999908,500.999756 
	C487.166656,501.000000 473.333344,501.000000 459.000000,501.000000 
M183.475250,227.007690 
	C176.608826,224.808517 169.764557,222.534912 162.855682,220.478317 
	C161.601944,220.105133 159.977203,220.319824 158.703690,220.771057 
	C141.667572,226.807373 124.647926,232.891815 107.685844,239.131882 
	C106.536095,239.554871 105.232056,241.250336 105.104401,242.469650 
	C104.521744,248.034653 104.205727,253.639297 104.132652,259.234131 
	C104.120773,260.143616 105.645882,261.513702 106.742142,261.930695 
	C121.878876,267.688477 137.026688,273.422852 152.264023,278.906738 
	C156.417557,280.401581 160.412201,282.283722 165.422562,280.339844 
	C182.423813,273.743866 199.641632,267.706146 216.888916,261.414246 
	C216.888916,259.853180 216.888916,258.210846 216.888916,256.268921 
	C199.585449,262.564362 182.445282,268.800385 165.305099,275.036407 
	C165.076340,274.512299 164.847580,273.988190 164.618805,273.464081 
	C167.364532,272.293182 170.061920,270.988831 172.864197,269.974091 
	C186.141937,265.166016 199.462128,260.475006 212.733765,255.650314 
	C215.682800,254.578247 218.374466,253.067719 216.397568,248.945419 
	C199.260498,255.193268 182.237488,261.399536 165.214462,267.605804 
	C165.001236,267.060211 164.787994,266.514587 164.574768,265.968964 
	C181.502563,258.434784 199.381607,253.280045 216.969864,246.349365 
	C216.905960,245.107285 216.827438,243.580917 216.725525,241.599991 
	C199.268204,247.938675 182.361053,254.077591 165.453918,260.216492 
	C165.190521,259.748047 164.927109,259.279602 164.663712,258.811157 
	C165.528046,258.187744 166.306396,257.330566 167.269714,256.976288 
	C180.063187,252.271027 192.892044,247.662048 205.689651,242.967896 
	C209.391586,241.610031 213.022324,240.058121 217.557129,238.247162 
	C205.793137,234.288300 195.046585,230.671860 183.475250,227.007690 
M335.003967,268.818054 
	C335.003967,263.691528 335.003967,258.564972 335.003967,253.338837 
	C333.149567,253.338837 331.643372,253.338837 330.159546,253.338837 
	C330.030487,256.091095 329.917053,258.509766 329.796143,261.087921 
	C327.619812,260.970490 325.875641,260.876404 324.137085,260.782593 
	C324.011566,257.946930 323.904297,255.523117 323.789124,252.920746 
	C321.977081,253.048798 320.577576,253.147690 319.278259,253.239517 
	C319.278259,260.049713 319.278259,266.466766 319.278259,273.073181 
	C320.979858,272.965149 322.394196,272.875366 323.807220,272.785645 
	C323.948883,270.357147 324.070404,268.273804 324.187408,266.268250 
	C326.289154,266.268250 328.025452,266.268250 330.136017,266.268250 
	C330.136017,268.602203 330.136017,270.674011 330.136017,273.003540 
	C331.650696,273.003540 332.852356,273.242279 333.912292,272.956146 
	C336.476013,272.263947 340.053070,275.085083 341.740845,270.431641 
	C342.015320,269.674927 348.119751,269.703064 348.412476,270.505524 
	C349.938049,274.687469 352.521942,272.636932 355.214325,272.741943 
	C352.813721,266.791321 350.841949,261.205933 348.262115,255.917145 
	C347.446686,254.245560 345.005432,253.367035 342.982666,251.887390 
	C340.242859,258.900543 337.996277,264.652130 335.721100,270.392426 
	C335.717285,270.402008 335.260590,270.283051 335.071930,270.146240 
	C334.982391,270.081329 335.026245,269.832550 335.003967,268.818054 
M273.190430,245.999680 
	C273.925751,244.893417 274.661102,243.787155 275.898804,241.925079 
	C272.701355,241.925079 271.073181,241.925079 268.915405,241.925079 
	C268.915405,236.516129 268.915405,231.288147 268.915405,225.903473 
	C266.623322,226.032547 264.880096,226.130722 262.759216,226.250168 
	C262.759216,232.234894 262.759216,237.827789 262.759216,244.338531 
	C260.475708,238.318268 258.667206,233.215485 256.548340,228.245041 
	C256.121796,227.244507 254.569717,226.279404 253.440659,226.152695 
	C252.394287,226.035248 250.568604,226.782562 250.205948,227.628937 
	C247.663223,233.563019 245.410812,239.621506 242.886261,246.100296 
	C245.671448,245.598434 248.455551,247.368607 249.718246,243.430054 
	C249.911102,242.828506 254.464905,243.368073 256.916290,243.831650 
	C258.768280,244.181870 260.435303,245.707077 262.270905,245.903519 
	C265.563660,246.255905 268.921265,246.002350 273.190430,245.999680 
M308.017395,232.586044 
	C308.017395,237.012314 308.017395,241.438599 308.017395,245.826538 
	C315.038330,246.123123 314.851624,245.738495 319.669159,243.399750 
	C321.565094,242.479340 324.570007,243.438904 326.945099,244.037567 
	C328.853729,244.518631 330.574188,245.746292 332.378113,246.642654 
	C332.703400,246.221893 333.028656,245.801117 333.353943,245.380356 
	C330.911102,239.327988 328.548096,233.240555 325.923340,227.268127 
	C325.599182,226.530533 323.714813,225.866455 322.849396,226.132156 
	C321.739899,226.472794 320.564117,227.619675 320.054413,228.715668 
	C317.772156,233.623138 315.716370,238.635956 313.578857,243.610748 
	C313.292633,243.531754 313.006439,243.452744 312.720245,243.373749 
	C312.720245,237.604034 312.720245,231.834320 312.720245,225.882660 
	C310.944366,226.039642 309.540649,226.163742 308.000702,226.299866 
	C308.000702,228.313721 308.000702,229.965912 308.017395,232.586044 
M304.000977,263.495422 
	C303.883301,256.558197 300.538849,253.042282 294.034698,253.018158 
	C288.971497,252.999374 284.265167,257.470093 284.014893,262.536346 
	C283.724152,268.421143 288.327057,273.670013 294.069916,274.002533 
	C299.419556,274.312286 303.571716,270.275726 304.000977,263.495422 
M228.995697,262.553040 
	C228.995697,265.975769 228.995697,269.398499 228.995697,272.967407 
	C235.726105,272.838562 242.562897,274.815033 245.335037,266.246674 
	C246.678085,262.095490 245.328613,259.092499 242.687195,256.187042 
	C239.422073,252.595535 234.959824,252.313309 231.003525,253.400299 
	C229.726593,253.751144 229.629608,258.402985 229.000504,261.089111 
	C228.963715,261.246185 228.995697,261.419434 228.995697,262.553040 
M288.060303,244.998123 
	C292.619507,241.226868 294.121155,236.925217 292.310272,232.823608 
	C289.807007,227.153763 284.960938,225.149490 277.297424,226.573639 
	C277.297424,233.003082 277.297424,239.415421 277.297424,246.374451 
	C280.843658,245.960098 284.047974,245.585693 288.060303,244.998123 
M258.821320,270.338348 
	C260.635834,271.420929 262.450348,272.503510 264.264893,273.586090 
	C264.582489,273.114197 264.900116,272.642273 265.217743,272.170380 
	C262.939911,266.397827 260.736908,260.593384 258.304138,254.886871 
	C257.936401,254.024261 256.450409,253.059494 255.567368,253.135666 
	C254.345032,253.241119 252.563553,254.005539 252.133316,254.979095 
	C249.572250,260.774506 247.331558,266.711517 244.798233,273.065063 
	C247.000443,272.936523 250.128159,273.272766 250.326843,272.659729 
	C251.820084,268.052124 255.423019,270.662323 258.821320,270.338348 
M305.908661,238.316605 
	C305.908661,236.915924 305.908661,235.515259 305.908661,234.006439 
	C304.142029,234.006439 302.936249,234.215744 301.849731,233.945526 
	C300.834106,233.692902 299.944977,232.931564 299.000183,232.394135 
	C300.019287,231.928741 300.998566,231.294220 302.067963,231.042633 
	C303.286102,230.756058 304.584595,230.811127 306.028809,230.704330 
	C305.941101,228.989853 305.869843,227.596878 305.803772,226.305557 
	C301.673035,226.305557 297.951843,226.305557 294.264648,226.305557 
	C294.264648,232.996307 294.264648,239.375687 294.264648,245.780579 
	C298.280243,245.780579 302.024414,245.780579 305.768585,245.780579 
	C306.027069,245.359253 306.285553,244.937943 306.544037,244.516617 
	C305.414978,243.680817 304.351196,242.730362 303.139130,242.040375 
	C301.842712,241.302383 300.406525,240.809921 299.031342,240.210281 
	C300.433899,239.806076 301.825562,239.355865 303.244049,239.018707 
	C303.876587,238.868362 304.563202,238.945526 305.908661,238.316605 
M271.997803,257.621399 
	C271.997803,262.703308 271.997803,267.785187 271.997803,273.069946 
	C273.965088,272.963837 275.374115,272.887817 276.849915,272.808197 
	C276.963074,270.386047 277.060211,268.306946 277.172974,265.893433 
	C279.229065,265.893433 280.974762,265.893433 282.758331,265.893433 
	C282.758331,264.133453 282.758331,262.732513 282.758331,261.800262 
	C280.606323,261.019165 278.814209,260.368683 277.022125,259.718231 
	C279.138092,258.846405 281.254059,257.974548 283.616516,257.001160 
	C283.616516,256.094788 283.616516,254.604706 283.616516,252.996078 
	C280.598999,252.996078 277.933380,253.215393 275.320129,252.939285 
	C272.215881,252.611298 271.633545,254.101410 271.997803,257.621399 
M306.714539,272.935455 
	C310.327148,272.935455 313.939758,272.935455 317.966644,272.935455 
	C317.877106,271.509155 317.803589,270.338135 317.731476,269.189606 
	C315.310455,269.043610 313.251068,268.919403 310.859070,268.775146 
	C310.859070,263.361603 310.859070,258.297455 310.859070,253.239197 
	C309.099182,253.239197 307.705383,253.239197 306.059906,253.239197 
	C306.059906,259.724060 306.059906,265.980042 306.714539,272.935455 
z"/>
<path fill="#FEFEFE" opacity="1.000000" stroke="none" 
	d="
M183.887650,227.031555 
	C195.046585,230.671860 205.793137,234.288300 217.557129,238.247162 
	C213.022324,240.058121 209.391586,241.610031 205.689651,242.967896 
	C192.892044,247.662048 180.063187,252.271027 167.269714,256.976288 
	C166.306396,257.330566 165.528046,258.187744 164.663712,258.811157 
	C164.927109,259.279602 165.190521,259.748047 165.453918,260.216492 
	C182.361053,254.077591 199.268204,247.938675 216.725525,241.599991 
	C216.827438,243.580917 216.905960,245.107285 216.969864,246.349365 
	C199.381607,253.280045 181.502563,258.434784 164.574768,265.968964 
	C164.787994,266.514587 165.001236,267.060211 165.214462,267.605804 
	C182.237488,261.399536 199.260498,255.193268 216.397568,248.945419 
	C218.374466,253.067719 215.682800,254.578247 212.733765,255.650314 
	C199.462128,260.475006 186.141937,265.166016 172.864197,269.974091 
	C170.061920,270.988831 167.364532,272.293182 164.618805,273.464081 
	C164.847580,273.988190 165.076340,274.512299 165.305099,275.036407 
	C182.445282,268.800385 199.585449,262.564362 216.888916,256.268921 
	C216.888916,258.210846 216.888916,259.853180 216.888916,261.414246 
	C199.641632,267.706146 182.423813,273.743866 165.422562,280.339844 
	C160.412201,282.283722 156.417557,280.401581 152.264023,278.906738 
	C137.026688,273.422852 121.878876,267.688477 106.742142,261.930695 
	C105.645882,261.513702 104.120773,260.143616 104.132652,259.234131 
	C104.205727,253.639297 104.521744,248.034653 105.104401,242.469650 
	C105.232056,241.250336 106.536095,239.554871 107.685844,239.131882 
	C124.647926,232.891815 141.667572,226.807373 158.703690,220.771057 
	C159.977203,220.319824 161.601944,220.105133 162.855682,220.478317 
	C169.764557,222.534912 176.608826,224.808517 183.887650,227.031555 
z"/>
<path fill="#FBFCFC" opacity="1.000000" stroke="none" 
	d="
M335.006836,269.242554 
	C335.026245,269.832550 334.982391,270.081329 335.071930,270.146240 
	C335.260590,270.283051 335.717285,270.402008 335.721100,270.392426 
	C337.996277,264.652130 340.242859,258.900543 342.982666,251.887390 
	C345.005432,253.367035 347.446686,254.245560 348.262115,255.917145 
	C350.841949,261.205933 352.813721,266.791321 355.214325,272.741943 
	C352.521942,272.636932 349.938049,274.687469 348.412476,270.505524 
	C348.119751,269.703064 342.015320,269.674927 341.740845,270.431641 
	C340.053070,275.085083 336.476013,272.263947 333.912292,272.956146 
	C332.852356,273.242279 331.650696,273.003540 330.136017,273.003540 
	C330.136017,270.674011 330.136017,268.602203 330.136017,266.268250 
	C328.025452,266.268250 326.289154,266.268250 324.187408,266.268250 
	C324.070404,268.273804 323.948883,270.357147 323.807220,272.785645 
	C322.394196,272.875366 320.979858,272.965149 319.278259,273.073181 
	C319.278259,266.466766 319.278259,260.049713 319.278259,253.239517 
	C320.577576,253.147690 321.977081,253.048798 323.789124,252.920746 
	C323.904297,255.523117 324.011566,257.946930 324.137085,260.782593 
	C325.875641,260.876404 327.619812,260.970490 329.796143,261.087921 
	C329.917053,258.509766 330.030487,256.091095 330.159546,253.338837 
	C331.643372,253.338837 333.149567,253.338837 335.003967,253.338837 
	C335.003967,258.564972 335.003967,263.691528 335.006836,269.242554 
z"/>
<path fill="#FCFDFD" opacity="1.000000" stroke="none" 
	d="
M272.721100,246.000854 
	C268.921265,246.002350 265.563660,246.255905 262.270905,245.903519 
	C260.435303,245.707077 258.768280,244.181870 256.916290,243.831650 
	C254.464905,243.368073 249.911102,242.828506 249.718246,243.430054 
	C248.455551,247.368607 245.671448,245.598434 242.886261,246.100296 
	C245.410812,239.621506 247.663223,233.563019 250.205948,227.628937 
	C250.568604,226.782562 252.394287,226.035248 253.440659,226.152695 
	C254.569717,226.279404 256.121796,227.244507 256.548340,228.245041 
	C258.667206,233.215485 260.475708,238.318268 262.759216,244.338531 
	C262.759216,237.827789 262.759216,232.234894 262.759216,226.250168 
	C264.880096,226.130722 266.623322,226.032547 268.915405,225.903473 
	C268.915405,231.288147 268.915405,236.516129 268.915405,241.925079 
	C271.073181,241.925079 272.701355,241.925079 275.898804,241.925079 
	C274.661102,243.787155 273.925751,244.893417 272.721100,246.000854 
z"/>
<path fill="#FAFCFB" opacity="1.000000" stroke="none" 
	d="
M308.009033,232.102066 
	C308.000702,229.965912 308.000702,228.313721 308.000702,226.299866 
	C309.540649,226.163742 310.944366,226.039642 312.720245,225.882660 
	C312.720245,231.834320 312.720245,237.604034 312.720245,243.373749 
	C313.006439,243.452744 313.292633,243.531754 313.578857,243.610748 
	C315.716370,238.635956 317.772156,233.623138 320.054413,228.715668 
	C320.564117,227.619675 321.739899,226.472794 322.849396,226.132156 
	C323.714813,225.866455 325.599182,226.530533 325.923340,227.268127 
	C328.548096,233.240555 330.911102,239.327988 333.353943,245.380356 
	C333.028656,245.801117 332.703400,246.221893 332.378113,246.642654 
	C330.574188,245.746292 328.853729,244.518631 326.945099,244.037567 
	C324.570007,243.438904 321.565094,242.479340 319.669159,243.399750 
	C314.851624,245.738495 315.038330,246.123123 308.017395,245.826538 
	C308.017395,241.438599 308.017395,237.012314 308.009033,232.102066 
z"/>
<path fill="#FBFCFC" opacity="1.000000" stroke="none" 
	d="
M303.999695,263.922974 
	C303.571716,270.275726 299.419556,274.312286 294.069916,274.002533 
	C288.327057,273.670013 283.724152,268.421143 284.014893,262.536346 
	C284.265167,257.470093 288.971497,252.999374 294.034698,253.018158 
	C300.538849,253.042282 303.883301,256.558197 303.999695,263.922974 
M290.305695,260.171936 
	C289.996582,263.091522 288.796387,266.589966 292.631927,267.824127 
	C294.078735,268.289642 297.185303,267.162415 297.758179,265.933136 
	C298.593689,264.140259 298.651093,260.945892 297.537292,259.537628 
	C296.030701,257.632721 293.094025,256.693848 290.305695,260.171936 
z"/>
<path fill="#FCFDFD" opacity="1.000000" stroke="none" 
	d="
M228.995697,262.069092 
	C228.995697,261.419434 228.963715,261.246185 229.000504,261.089111 
	C229.629608,258.402985 229.726593,253.751144 231.003525,253.400299 
	C234.959824,252.313309 239.422073,252.595535 242.687195,256.187042 
	C245.328613,259.092499 246.678085,262.095490 245.335037,266.246674 
	C242.562897,274.815033 235.726105,272.838562 228.995697,272.967407 
	C228.995697,269.398499 228.995697,265.975769 228.995697,262.069092 
M237.528503,258.940857 
	C236.685257,259.164368 235.125168,259.345093 235.108887,259.617950 
	C234.932571,262.572632 234.998779,265.541779 234.998779,268.571075 
	C240.789917,266.310638 241.321075,264.734711 237.528503,258.940857 
z"/>
<path fill="#FBFCFC" opacity="1.000000" stroke="none" 
	d="
M287.656311,245.104706 
	C284.047974,245.585693 280.843658,245.960098 277.297424,246.374451 
	C277.297424,239.415421 277.297424,233.003082 277.297424,226.573639 
	C284.960938,225.149490 289.807007,227.153763 292.310272,232.823608 
	C294.121155,236.925217 292.619507,241.226868 287.656311,245.104706 
M286.039337,232.561920 
	C284.834167,232.017365 283.628967,231.472809 282.118225,230.790176 
	C282.118225,234.761063 282.118225,238.134659 282.118225,241.574524 
	C287.131012,240.505615 287.689728,237.228592 286.039337,232.561920 
z"/>
<path fill="#FCFDFD" opacity="1.000000" stroke="none" 
	d="
M258.413544,270.180176 
	C255.423019,270.662323 251.820084,268.052124 250.326843,272.659729 
	C250.128159,273.272766 247.000443,272.936523 244.798233,273.065063 
	C247.331558,266.711517 249.572250,260.774506 252.133316,254.979095 
	C252.563553,254.005539 254.345032,253.241119 255.567368,253.135666 
	C256.450409,253.059494 257.936401,254.024261 258.304138,254.886871 
	C260.736908,260.593384 262.939911,266.397827 265.217743,272.170380 
	C264.900116,272.642273 264.582489,273.114197 264.264893,273.586090 
	C262.450348,272.503510 260.635834,271.420929 258.413544,270.180176 
z"/>
<path fill="#FBFCFC" opacity="1.000000" stroke="none" 
	d="
M305.566956,238.618011 
	C304.563202,238.945526 303.876587,238.868362 303.244049,239.018707 
	C301.825562,239.355865 300.433899,239.806076 299.031342,240.210281 
	C300.406525,240.809921 301.842712,241.302383 303.139130,242.040375 
	C304.351196,242.730362 305.414978,243.680817 306.544037,244.516617 
	C306.285553,244.937943 306.027069,245.359253 305.768585,245.780579 
	C302.024414,245.780579 298.280243,245.780579 294.264648,245.780579 
	C294.264648,239.375687 294.264648,232.996307 294.264648,226.305557 
	C297.951843,226.305557 301.673035,226.305557 305.803772,226.305557 
	C305.869843,227.596878 305.941101,228.989853 306.028809,230.704330 
	C304.584595,230.811127 303.286102,230.756058 302.067963,231.042633 
	C300.998566,231.294220 300.019287,231.928741 299.000183,232.394135 
	C299.944977,232.931564 300.834106,233.692902 301.849731,233.945526 
	C302.936249,234.215744 304.142029,234.006439 305.908661,234.006439 
	C305.908661,235.515259 305.908661,236.915924 305.566956,238.618011 
z"/>
<path fill="#FAFCFB" opacity="1.000000" stroke="none" 
	d="
M271.999023,257.137512 
	C271.633545,254.101410 272.215881,252.611298 275.320129,252.939285 
	C277.933380,253.215393 280.598999,252.996078 283.616516,252.996078 
	C283.616516,254.604706 283.616516,256.094788 283.616516,257.001160 
	C281.254059,257.974548 279.138092,258.846405 277.022125,259.718231 
	C278.814209,260.368683 280.606323,261.019165 282.758331,261.800262 
	C282.758331,262.732513 282.758331,264.133453 282.758331,265.893433 
	C280.974762,265.893433 279.229065,265.893433 277.172974,265.893433 
	C277.060211,268.306946 276.963074,270.386047 276.849915,272.808197 
	C275.374115,272.887817 273.965088,272.963837 271.997803,273.069946 
	C271.997803,267.785187 271.997803,262.703308 271.999023,257.137512 
z"/>
<path fill="#FAFCFB" opacity="1.000000" stroke="none" 
	d="
M306.387207,272.585754 
	C306.059906,265.980042 306.059906,259.724060 306.059906,253.239197 
	C307.705383,253.239197 309.099182,253.239197 310.859070,253.239197 
	C310.859070,258.297455 310.859070,263.361603 310.859070,268.775146 
	C313.251068,268.919403 315.310455,269.043610 317.731476,269.189606 
	C317.803589,270.338135 317.877106,271.509155 317.966644,272.935455 
	C313.939758,272.935455 310.327148,272.935455 306.387207,272.585754 
z"/>
<path fill="#000000" opacity="1.000000" stroke="none" 
	d="
M290.615967,259.898376 
	C293.094025,256.693848 296.030701,257.632721 297.537292,259.537628 
	C298.651093,260.945892 298.593689,264.140259 297.758179,265.933136 
	C297.185303,267.162415 294.078735,268.289642 292.631927,267.824127 
	C288.796387,266.589966 289.996582,263.091522 290.615967,259.898376 
z"/>
<path fill="#000000" opacity="1.000000" stroke="none" 
	d="
M237.945847,258.980164 
	C241.321075,264.734711 240.789917,266.310638 234.998779,268.571075 
	C234.998779,265.541779 234.932571,262.572632 235.108887,259.617950 
	C235.125168,259.345093 236.685257,259.164368 237.945847,258.980164 
z"/>
<path fill="#000000" opacity="1.000000" stroke="none" 
	d="
M286.351624,232.839874 
	C287.689728,237.228592 287.131012,240.505615 282.118225,241.574524 
	C282.118225,238.134659 282.118225,234.761063 282.118225,230.790176 
	C283.628967,231.472809 284.834167,232.017365 286.351624,232.839874 
z"/>
</svg>